<svg viewBox="0 0 200 280" fill="none" xmlns="http://www.w3.org/2000/svg">
  <!-- 外框 -->
  <rect x="10" y="10" width="180" height="260" rx="8" fill="#FEF3C7" stroke="#D97706" stroke-width="3"/>
  <!-- 内框 -->
  <rect x="20" y="20" width="160" height="240" rx="4" fill="#FFFBEB" stroke="#F59E0B" stroke-width="1"/>
  <!-- 顶部装饰 -->
  <circle cx="100" cy="60" r="30" fill="#D97706" opacity="0.2"/>
  <path d="M100 45 L100 60 L115 60" stroke="#D97706" stroke-width="3" stroke-linecap="round"/>
  <!-- 五角星 -->
  <polygon points="100,35 103,45 113,45 105,51 108,61 100,55 92,61 95,51 87,45 97,45" fill="#D97706"/>
  <!-- 标题 -->
  <text x="100" y="110" text-anchor="middle" font-size="14" font-weight="bold" fill="#92400E">高新技术企业</text>
  <text x="100" y="130" text-anchor="middle" font-size="12" fill="#92400E">证书</text>
  <!-- 横线 -->
  <line x1="40" y1="155" x2="160" y2="155" stroke="#D97706" stroke-width="1" opacity="0.5"/>
  <line x1="40" y1="170" x2="160" y2="170" stroke="#D97706" stroke-width="1" opacity="0.5"/>
  <line x1="40" y1="185" x2="160" y2="185" stroke="#D97706" stroke-width="1" opacity="0.5"/>
  <!-- 底部印章 -->
  <circle cx="100" cy="230" r="25" fill="none" stroke="#DC2626" stroke-width="2" opacity="0.6"/>
  <text x="100" y="235" text-anchor="middle" font-size="10" fill="#DC2626" opacity="0.6">认证</text>
</svg>